<?xml version="1.0" standalone="no"?>
<!DOCTYPE svg PUBLIC "-//W3C//DTD SVG 20010904//EN"
 "http://www.w3.org/TR/2001/REC-SVG-20010904/DTD/svg10.dtd">
<svg version="1.0" xmlns="http://www.w3.org/2000/svg"
 width="348.000000pt" height="348.000000pt" viewBox="0 0 348.000000 348.000000"
 preserveAspectRatio="xMidYMid meet">

<g transform="translate(0.000000,348.000000) scale(0.100000,-0.100000)"
fill="#000000" stroke="none">
<path d="M40 1735 l0 -1695 1695 0 1695 0 0 1695 0 1695 -1695 0 -1695 0 0
-1695z m3370 0 l0 -1675 -1675 0 -1675 0 0 1675 0 1675 1675 0 1675 0 0 -1675z"/>
<path d="M237 3252 c-15 -17 -17 -59 -17 -399 0 -355 1 -381 18 -396 17 -16
115 -17 1209 -17 1140 0 1191 1 1206 18 15 17 17 59 17 399 0 355 -1 381 -18
396 -17 16 -115 17 -1209 17 -1140 0 -1191 -1 -1206 -18z m2373 -397 l0 -355
-1165 0 -1165 0 0 355 0 355 1165 0 1165 0 0 -355z"/>
<path d="M1634 3005 c-4 -8 -3 -27 1 -43 l7 -27 -24 22 c-74 70 -212 70 -286
0 -82 -76 -82 -218 0 -294 76 -72 213 -70 291 4 l27 27 0 -52 c0 -49 1 -52 26
-52 l26 0 -6 158 c-10 241 -14 272 -37 272 -11 0 -22 -7 -25 -15z m-46 -88
c36 -36 37 -40 37 -106 0 -60 -3 -73 -25 -96 -36 -39 -73 -55 -125 -55 -52 0
-89 16 -125 55 -22 23 -25 36 -25 95 0 63 3 72 30 100 41 44 60 50 133 47 57
-3 66 -6 100 -40z"/>
<path d="M2945 3230 c-46 -10 -79 -35 -103 -79 -56 -98 4 -215 119 -236 72
-13 168 53 184 126 25 111 -85 215 -200 189z m114 -39 c95 -67 90 -187 -10
-239 -97 -51 -209 14 -209 121 0 67 31 109 97 132 44 15 88 10 122 -14z"/>
<path d="M2587 2372 c-16 -17 -17 -92 -17 -869 0 -811 1 -851 18 -866 17 -15
55 -17 339 -17 297 0 321 1 336 18 16 17 17 92 17 869 0 811 -1 851 -18 866
-17 15 -55 17 -339 17 -297 0 -321 -1 -336 -18z m633 -867 l0 -825 -295 0
-295 0 0 825 0 825 295 0 295 0 0 -825z"/>
<path d="M2828 1853 c-2 -5 -2 -146 0 -315 l3 -308 24 0 c22 0 25 4 25 37 l0
36 30 -41 c36 -51 57 -62 111 -62 36 0 48 6 79 39 48 50 70 116 70 206 0 90
-22 156 -70 206 -31 33 -43 39 -79 39 -54 0 -75 -11 -111 -62 l-30 -41 0 121
c0 66 -3 127 -6 136 -6 16 -40 22 -46 9z m240 -236 c36 -38 52 -91 52 -172 0
-117 -42 -195 -105 -195 -63 0 -105 78 -105 195 0 117 42 195 105 195 20 0 39
-8 53 -23z"/>
<path d="M460 2370 c-12 -8 -16 -47 -18 -227 -2 -135 1 -229 7 -246 l11 -27
208 0 c148 0 211 3 220 12 9 9 12 77 12 245 l0 233 -26 10 c-33 13 -394 13
-414 0z m392 -167 c2 -71 2 -163 0 -205 l-3 -78 -179 0 -180 0 0 205 0 205
179 0 180 0 3 -127z"/>
<path d="M1310 2330 c-12 -8 -16 -44 -18 -207 -2 -120 1 -209 7 -226 l11 -27
173 0 c121 0 177 4 185 12 9 9 12 73 12 225 l0 213 -26 10 c-33 13 -324 13
-344 0z m322 -202 c2 -90 2 -173 0 -185 -3 -23 -6 -23 -148 -23 l-144 0 0 185
0 185 145 0 144 0 3 -162z"/>
<path d="M2010 2330 c-12 -8 -16 -46 -18 -218 -2 -126 1 -218 7 -235 l11 -27
208 0 c148 0 211 3 220 12 9 9 12 75 12 235 l0 223 -26 10 c-33 13 -394 13
-414 0z m392 -167 c2 -71 2 -158 0 -195 l-3 -68 -179 0 -180 0 0 195 0 195
179 0 180 0 3 -127z"/>
<path d="M582 1739 c-109 -54 -155 -203 -102 -328 44 -102 151 -158 250 -131
64 17 133 88 154 159 20 67 20 94 1 157 -40 136 -182 203 -303 143z m191 -52
c114 -86 99 -288 -25 -353 -39 -20 -117 -18 -155 6 -51 30 -84 89 -90 159 -8
81 28 158 90 196 56 34 129 31 180 -8z"/>
<path d="M2143 1739 c-85 -42 -133 -126 -133 -234 0 -177 139 -296 292 -251
106 31 172 128 171 251 0 80 -17 126 -65 181 -64 73 -179 96 -265 53z m182
-42 c63 -35 98 -95 103 -173 6 -83 -16 -140 -68 -188 -46 -42 -73 -50 -141
-44 -100 10 -164 93 -164 214 0 61 4 77 30 119 55 88 157 119 240 72z"/>
<path d="M1455 1695 c-44 -24 -84 -65 -107 -109 -30 -58 -22 -156 17 -214 91
-137 277 -129 363 17 56 96 26 221 -69 286 -52 37 -155 46 -204 20z m169 -49
c148 -87 91 -326 -78 -326 -69 0 -127 36 -156 96 -74 152 91 314 234 230z"/>
<path d="M1340 1170 c-12 -8 -16 -45 -18 -214 -2 -135 1 -212 8 -226 10 -19
20 -20 170 -20 87 0 165 3 174 6 14 5 16 35 16 225 l0 219 -26 10 c-33 13
-304 13 -324 0z m302 -215 c2 -96 2 -180 0 -185 -2 -6 -58 -10 -138 -10 l-134
0 0 185 0 185 135 0 134 0 3 -175z"/>
<path d="M2060 1140 c-12 -8 -16 -44 -18 -204 -2 -129 0 -201 8 -215 10 -20
19 -21 163 -21 106 0 157 4 165 12 9 9 12 70 12 215 l0 203 -26 10 c-33 13
-284 13 -304 0z m280 -215 l0 -175 -125 0 -125 0 0 175 0 175 125 0 125 0 0
-175z"/>
<path d="M500 1130 c-12 -8 -16 -44 -18 -199 -2 -124 1 -197 8 -211 10 -19 20
-20 183 -20 121 0 177 4 185 12 9 9 12 69 12 210 l0 198 -26 10 c-33 13 -324
13 -344 0z m320 -200 c0 -88 0 -163 0 -167 0 -5 -65 -9 -145 -11 l-145 -3 0
171 0 170 145 0 145 0 0 -160z"/>
<path d="M237 582 c-15 -16 -17 -47 -17 -229 0 -191 2 -211 18 -226 17 -16
111 -17 1149 -17 1082 0 1131 1 1146 18 15 16 17 47 17 229 0 191 -2 211 -18
226 -17 16 -111 17 -1149 17 -1082 0 -1131 -1 -1146 -18z m2253 -227 l0 -185
-1105 0 -1105 0 0 185 0 185 1105 0 1105 0 0 -185z"/>
<path d="M1282 460 c-124 -76 -75 -258 70 -263 49 -2 111 20 105 37 -2 7 -27
10 -67 8 -72 -4 -105 9 -126 50 -23 45 -17 77 21 115 33 33 39 35 83 31 32 -3
52 0 60 8 33 35 -92 47 -146 14z"/>
<path d="M2866 559 c-60 -14 -153 -68 -179 -103 -103 -134 3 -280 232 -317
186 -31 384 54 422 180 25 83 -42 177 -160 223 -63 24 -246 35 -315 17z m255
-45 c118 -34 179 -92 179 -168 0 -34 -7 -46 -45 -82 -65 -62 -152 -88 -285
-82 -88 3 -105 7 -166 38 -129 66 -150 158 -54 238 77 64 252 91 371 56z"/>
</g>
</svg>
