<svg version="1.0" xmlns="http://www.w3.org/2000/svg" width="464" height="464" viewBox="0 0 348 348"><path d="M4 174.5V344h339V5H4v169.5zm337 0V342l-50.7.2c-28 .2-103.3.2-167.5 0L6 342V7h335v167.5z"/><path d="M23.7 22.8c-1.5 1.7-1.7 5.9-1.7 39.9 0 35.5.1 38.1 1.8 39.6 1.7 1.6 11.5 1.7 120.9 1.7 114 0 119.1-.1 120.6-1.8s1.7-5.9 1.7-39.9c0-35.5-.1-38.1-1.8-39.6-1.7-1.6-11.5-1.7-120.9-1.7-114 0-119.1.1-120.6 1.8zM261 62.5V98H28V27h233v35.5z"/><path d="M132.5 33.5c-6.8 3.2-10.5 8.6-11.2 16.5-.5 4.7-.1 6.7 1.7 10.4 5.1 10.7 18.1 14.3 27.1 7.7 1.6-1.2 3.1-2.1 3.4-2.1.3 0 .5 4.9.5 10.9 0 10.5.8 13.7 3 11.5 1.1-1.1 1.4-36.5.4-46.2-.4-4.8-1.1-7.2-2-7.2-.7 0-1.5.4-1.9 1-.3.5-2.5-.1-5.2-1.5-5.2-2.8-11.2-3.2-15.8-1zm12.9 3.9c5.8 2.4 7.6 5.8 7.6 14.4 0 7.3-.1 7.5-3.9 11.3-3.4 3.4-4.4 3.9-8.5 3.9-8.7 0-14.3-5-15.2-13.7-1.3-11.8 9.4-20.3 20-15.9zM294.5 25c-4.6 1-7.9 3.5-10.3 7.9-5.6 9.8.4 21.5 11.9 23.6 7.2 1.3 16.8-5.3 18.4-12.6 2.5-11.1-8.5-21.5-20-18.9zm11.4 3.9c9.5 6.7 9 18.7-1 23.9-9.7 5.1-20.9-1.4-20.9-12.1 0-6.7 3.1-10.9 9.7-13.2 4.4-1.5 8.8-1 12.2 1.4zM258.7 110.8c-1.6 1.7-1.7 9.2-1.7 86.9 0 81.1.1 85.1 1.8 86.6s5.5 1.7 33.9 1.7c29.7 0 32.1-.1 33.6-1.8 1.6-1.7 1.7-9.2 1.7-86.9 0-81.1-.1-85.1-1.8-86.6s-5.5-1.7-33.9-1.7c-29.7 0-32.1.1-33.6 1.8zm63.3 86.7V280h-59V115h59v82.5z"/><path d="M283.5 163.4c-9.4 4.3-13.3 17.3-8.2 27.4 5.7 11.5 20.3 12.8 27.3 2.4l2.1-3.1.8 18.9c.7 18.1.8 19 2.7 19 2 0 2-.5 1.3-32.3-.4-17.7-1.1-32.6-1.5-33.1-1.6-1.7-3 .6-3 5.2v4.7l-1.8-2.7c-4.4-6.7-13.1-9.5-19.7-6.4zm11.5 4.1c4.3 2.2 7 7.4 7 13.4 0 9-4.9 15.1-12.2 15.1-11.7 0-17.1-16.5-8.5-25.9 3.9-4.2 8.8-5.1 13.7-2.6zM46 111c-1.2.8-1.6 4.7-1.8 22.7-.2 13.5.1 22.9.7 24.6L46 161h20.8c14.8 0 21.1-.3 22-1.2.9-.9 1.2-7.7 1.2-24.5V112l-2.6-1c-3.3-1.3-39.4-1.3-41.4 0zm39.2 16.7c.2 7.1.2 16.3 0 20.5l-.3 7.8H49v-41h35.9l.3 12.7zM131 115c-1.2.8-1.6 4.4-1.8 20.7-.2 12 .1 20.9.7 22.6l1.1 2.7h17.3c12.1 0 17.7-.4 18.5-1.2.9-.9 1.2-7.3 1.2-22.5V116l-2.6-1c-3.3-1.3-32.4-1.3-34.4 0zm32.2 20.2c.2 9 .2 17.3 0 18.5-.3 2.3-.6 2.3-14.8 2.3H134v-37h28.9l.3 16.2zM201 115c-1.2.8-1.6 4.6-1.8 21.8-.2 12.6.1 21.8.7 23.5l1.1 2.7h20.8c14.8 0 21.1-.3 22-1.2.9-.9 1.2-7.5 1.2-23.5V116l-2.6-1c-3.3-1.3-39.4-1.3-41.4 0zm39.2 16.7c.2 7.1.2 15.8 0 19.5l-.3 6.8H204v-39h35.9l.3 12.7zM58.2 174.1c-10.9 5.4-15.5 20.3-10.2 32.8 4.4 10.2 15.1 15.8 25 13.1 6.4-1.7 13.3-8.8 15.4-15.9 2-6.7 2-9.4.1-15.7-4-13.6-18.2-20.3-30.3-14.3zm19.1 5.2c11.4 8.6 9.9 28.8-2.5 35.3-3.9 2-11.7 1.8-15.5-.6-5.1-3-8.4-8.9-9-15.9-.8-8.1 2.8-15.8 9-19.6 5.6-3.4 12.9-3.1 18 .8zM214.3 174.1c-8.5 4.2-13.3 12.6-13.3 23.4 0 17.7 13.9 29.6 29.2 25.1 10.6-3.1 17.2-12.8 17.1-25.1 0-8-1.7-12.6-6.5-18.1-6.4-7.3-17.9-9.6-26.5-5.3zm18.2 4.2c6.3 3.5 9.8 9.5 10.3 17.3.6 8.3-1.6 14-6.8 18.8-4.6 4.2-7.3 5-14.1 4.4-10-1-16.4-9.3-16.4-21.4 0-6.1.4-7.7 3-11.9 5.5-8.8 15.7-11.9 24-7.2zM145.5 178.5c-4.4 2.4-8.4 6.5-10.7 10.9-3 5.8-2.2 15.6 1.7 21.4 9.1 13.7 27.7 12.9 36.3-1.7 5.6-9.6 2.6-22.1-6.9-28.6-5.2-3.7-15.5-4.6-20.4-2zm16.9 4.9c14.8 8.7 9.1 32.6-7.8 32.6-6.9 0-12.7-3.6-15.6-9.6-7.4-15.2 9.1-31.4 23.4-23zM134 231c-1.2.8-1.6 4.5-1.8 21.4-.2 13.5.1 21.2.8 22.6 1 1.9 2 2 17 2 8.7 0 16.5-.3 17.4-.6 1.4-.5 1.6-3.5 1.6-22.5V232l-2.6-1c-3.3-1.3-30.4-1.3-32.4 0zm30.2 21.5c.2 9.6.2 18 0 18.5-.2.6-5.8 1-13.8 1H137v-37h26.9l.3 17.5zM206 234c-1.2.8-1.6 4.4-1.8 20.4-.2 12.9 0 20.1.8 21.5 1 2 1.9 2.1 16.3 2.1 10.6 0 15.7-.4 16.5-1.2.9-.9 1.2-7 1.2-21.5V235l-2.6-1c-3.3-1.3-28.4-1.3-30.4 0zm28 21.5V273h-25v-35h25v17.5zM50 235c-1.2.8-1.6 4.4-1.8 19.9-.2 12.4.1 19.7.8 21.1 1 1.9 2 2 18.3 2 12.1 0 17.7-.4 18.5-1.2.9-.9 1.2-6.9 1.2-21V236l-2.6-1c-3.3-1.3-32.4-1.3-34.4 0zm32 20v16.7c0 .5-6.5.9-14.5 1.1l-14.5.3V239h29v16zM23.7 289.8c-1.5 1.6-1.7 4.7-1.7 22.9 0 19.1.2 21.1 1.8 22.7 1.7 1.5 8.3 1.6 78.8 1.4l76.9-.3v-48l-77.1-.3c-73.7-.2-77.2-.1-78.7 1.6zM176 312.5V331H28v-37h148v18.5zM286.6 292.1c-6 1.4-15.3 6.8-17.9 10.3-10.3 13.4.3 28 23.2 31.7 18.6 3.1 38.4-5.4 42.2-18 2.5-8.3-4.2-17.7-16-22.3-6.3-2.4-24.6-3.5-31.5-1.7zm25.5 4.5c11.8 3.4 17.9 9.2 17.9 16.8 0 3.4-.7 4.6-4.5 8.2-6.5 6.2-15.2 8.8-28.5 8.2-8.8-.3-10.5-.7-16.6-3.8-12.9-6.6-15-15.8-5.4-23.8 7.7-6.4 25.2-9.1 37.1-5.6zM213.5 293.9c-16.2 4.3-24.1 15.7-18.8 26.8 6.8 14.4 38.3 18.5 53.4 7 12.7-9.6 10.8-22.9-4.5-30.7-6.3-3.2-7.6-3.5-17-3.7-5.5-.1-11.4.2-13.1.6zm27.9 6.5c7.6 3.7 10.6 7.5 10.6 13.3 0 4.2-.5 5.1-4.3 8.8-12.4 11.8-42.4 9.7-49.2-3.5-4.2-8.2 1.5-16.4 14.1-20.4 7.8-2.5 21.8-1.6 28.8 1.8z"/></svg>